<svg width="262.8" height="91.53220612002514" viewBox="0 0 369.89473684210526 128.83288164133955" class="css-1j8o68f"><defs id="SvgjsDefs1239"></defs><g id="SvgjsG1240" featurekey="PG4fjM-0" transform="matrix(0.2516267219557413,0,0,0.2516267219557413,-18.363790044127043,0)" fill="#ff5722"><g xmlns="http://www.w3.org/2000/svg"><g><g><path d="M255.996,0c-47.372,0-93.252,20.134-129.188,56.692c-34.023,34.615-53.647,78.525-53.827,120.47     c-0.179,41.271,32.988,114.046,95.913,210.454C204.625,442.36,240.76,490.47,257.308,512     c16.387-21.654,52.166-70.018,87.48-124.908c62.18-96.648,94.762-169.207,94.225-209.826C437.905,93.589,359.4,0,255.996,0z      M255.996,323.479c-81.188,0-147.242-66.056-147.242-147.245c0-81.191,66.054-147.246,147.242-147.246     c81.194,0,147.245,66.624,147.245,147.246C403.241,257.423,337.188,323.479,255.996,323.479z"></path></g><g><path d="M256,76.602c-55.668,0-100.96,45.29-100.96,100.96c0,55.67,45.292,100.961,100.96,100.961     c55.671,0,100.961-45.291,100.961-100.961C356.961,121.892,311.671,76.602,256,76.602z M267.27,195.877h-25.827v44.608     c0,1.297-1.05,2.351-2.347,2.351h-18.784c-1.296,0-2.347-1.053-2.347-2.351V123.091c0-1.297,1.051-2.348,2.347-2.348h46.958     c20.717,0,37.568,16.854,37.568,37.566C304.838,179.023,287.986,195.877,267.27,195.877z"></path><path d="M267.27,144.222h-25.827v28.174h25.827c7.77,0,14.088-6.318,14.088-14.087     C281.357,150.542,275.039,144.222,267.27,144.222z"></path><path d="M267.27,125.438H222.66v112.701h14.089v-44.612c0-1.295,1.049-2.347,2.347-2.347h28.174     c18.126,0,32.871-14.746,32.871-32.871C300.141,140.183,285.396,125.438,267.27,125.438z M267.27,177.093h-28.174     c-1.298,0-2.347-1.053-2.347-2.349v-32.87c0-1.297,1.049-2.35,2.347-2.35h28.174c10.356,0,18.784,8.428,18.784,18.784     C286.054,168.665,277.626,177.093,267.27,177.093z"></path></g></g></g></g><g id="SvgjsG1241" featurekey="jxYttZ-0" transform="matrix(3.4542559676684124,0,0,3.4542559676684124,105.78233942290862,21.350488937111116)" fill="#eeeeee"><path d="M12.92 10.52 c0 3.04 -2.36 5.5 -5.28 5.52 l-3.6 0 l0 3.96 l-2.24 0 l0 -15 l5.84 0 c2.92 0.02 5.28 2.48 5.28 5.52 z M7.6 14.2 c1.72 0 3.1 -1.66 3.1 -3.68 s-1.38 -3.68 -3.1 -3.68 l-3.56 0 l0 7.36 l3.56 0 z M19.54 9.92 c2.84 0 3.98 1.72 3.98 3.18 l0 6.9 l-2.06 0 l0 -1.08 c-0.72 0.98 -2 1.26 -2.8 1.26 c-2.26 0 -3.74 -1.32 -3.74 -3.08 c0 -2.46 1.84 -3.34 3.74 -3.34 l2.8 0 l0 -0.66 c0 -0.62 -0.24 -1.48 -1.92 -1.48 c-0.94 0 -1.8 0.5 -2.36 1.28 l-1.42 -1.28 c0.94 -1.04 2.28 -1.7 3.78 -1.7 z M21.46 16.92 l0 -1.48 l-2.52 0 c-1.22 0 -2.08 0.62 -1.94 1.74 c0.12 0.94 0.88 1.32 1.94 1.32 c1.9 0 2.52 -0.9 2.52 -1.58 z M31.94 10.24 l-0.44 1.62 c-0.14 -0.08 -0.58 -0.22 -0.94 -0.22 c-1.7 0 -2.5 1.62 -2.5 3.62 l0 4.74 l-2.06 0 l0 -9.88 l2.06 0 l0 1.4 c0.24 -0.92 1.3 -1.58 2.48 -1.58 c0.54 0 1.12 0.14 1.4 0.3 z M42.46 15.08 l0 0.74 l-7.78 0 c0 1.82 1.74 2.7 3.02 2.7 c0.94 0 1.98 -0.5 2.54 -1.3 l1.42 1.28 c-0.66 0.9 -1.74 1.7 -3.96 1.7 c-3.2 0 -5.16 -2.18 -5.16 -5.12 s1.9 -5.14 4.96 -5.14 s4.46 1.7 4.88 4.18 c0.06 0.32 0.08 0.64 0.08 0.96 z M34.72 14.120000000000001 l5.58 0 c0 -1.6 -1.28 -2.48 -2.8 -2.48 s-2.78 1.02 -2.78 2.48 z M55.96000000000001 16.46 l1.46 1.46 c-1.38 1.52 -3.36 2.28 -5.54 2.28 c-4.22 0 -7.62 -3.34 -7.62 -7.7 c0 -4.34 3.4 -7.68 7.62 -7.68 c2.18 0 4.16 0.76 5.56 2.3 l-1.46 1.46 c-0.88 -1.28 -2.48 -1.92 -4.1 -1.92 c-3.1 0 -5.4 2.76 -5.4 5.84 c0 2.82 2.08 5.86 5.4 5.86 c1.44 0 3.28 -0.56 4.08 -1.9 z M64.06 9.92 c2.84 0 3.98 1.72 3.98 3.18 l0 6.9 l-2.06 0 l0 -1.08 c-0.72 0.98 -2 1.26 -2.8 1.26 c-2.26 0 -3.74 -1.32 -3.74 -3.08 c0 -2.46 1.84 -3.34 3.74 -3.34 l2.8 0 l0 -0.66 c0 -0.62 -0.24 -1.48 -1.92 -1.48 c-0.94 0 -1.8 0.5 -2.36 1.28 l-1.42 -1.28 c0.94 -1.04 2.28 -1.7 3.78 -1.7 z M65.98 16.92 l0 -1.48 l-2.52 0 c-1.22 0 -2.08 0.62 -1.94 1.74 c0.12 0.94 0.88 1.32 1.94 1.32 c1.9 0 2.52 -0.9 2.52 -1.58 z M76.46000000000001 10.24 l-0.44 1.62 c-0.14 -0.08 -0.58 -0.22 -0.94 -0.22 c-1.7 0 -2.5 1.62 -2.5 3.62 l0 4.74 l-2.06 0 l0 -9.88 l2.06 0 l0 1.4 c0.24 -0.92 1.3 -1.58 2.48 -1.58 c0.54 0 1.12 0.14 1.4 0.3 z"></path></g></svg>
